<svg version="1.2" xmlns="http://www.w3.org/2000/svg" viewBox="0 0 21 22" width="21" height="22">
	<title>image</title>
	<defs>
		<clipPath clipPathUnits="userSpaceOnUse" id="cp1">
			<path d="m0 0.5h20.8v21h-20.8z"/>
		</clipPath>
		<radialGradient id="g1" cx="0" cy="0" r="1" gradientUnits="userSpaceOnUse" gradientTransform="matrix(3.316,5.121,-5.121,3.316,6.186,6.632)">
			<stop offset="0" stop-color="#ffffff" stop-opacity="1"/>
			<stop offset="1" stop-color="#ffffff" stop-opacity="0"/>
		</radialGradient>
	</defs>
	<style>
		.s0 { fill: #ffa500 } 
		.s1 { opacity: .6;fill: url(#g1) } 
		.s2 { fill: #008000 } 
	</style>
	<g id="Clip-Path" clip-path="url(#cp1)">
		<g id="Layer">
			<path id="Layer" class="s0" d="m10.4 21.5c-5.8 0-10.4-4.7-10.4-10.5 0-5.8 4.6-10.5 10.4-10.5 5.8 0 10.4 4.7 10.4 10.5 0 5.8-4.6 10.5-10.4 10.5z"/>
			<path id="Layer" class="s1" d="m9.5 11.8c-3.3 2.1-7.4 1.6-9.2-1.3-1.8-2.8-0.7-6.8 2.6-9 3.2-2.1 7.3-1.6 9.2 1.2 1.8 2.9 0.7 6.9-2.6 9.1z"/>
			<path id="Layer" class="s2" d="m14.9 1.7c-1.8 1.3-2.5 3.3-1.8 4.3 0.7 1 2.2 2.3 4 1 1.5-1.1 0.5-2.3 3.3-6.4 0 0-0.3 0-0.4 0-1.4-0.2-3.4-0.1-5.1 1.1z"/>
		</g>
	</g>
</svg>